<svg width="160" height="30" viewBox="0 0 160 30" fill="none" xmlns="http://www.w3.org/2000/svg">
<path fill-rule="evenodd" clip-rule="evenodd" d="M43.4025 4.34565L43.3727 5.7063H42.0663H40.7601L40.7602 6.36754L40.7603 7.02878L42.0665 7.05866L43.3727 7.08853L43.4025 8.4492L43.4323 9.80985L44.0956 9.77827L44.7588 9.74669L44.8122 8.41762L44.8655 7.08853L46.1718 7.05866L47.4779 7.02878V6.39412C47.4779 5.95989 47.4358 5.75798 47.3446 5.75468C47.2714 5.75202 46.6835 5.74001 46.0384 5.7281L44.8655 5.7063L44.8122 4.37723L44.7588 3.04815L44.0956 3.01657L43.4323 2.98499L43.4025 4.34565ZM17.8991 8.48077C16.1513 8.90246 14.6657 10.0853 13.8131 11.7342C13.1865 12.9459 13.1434 13.3586 13.1434 18.1408V22.4527H14.8449H16.5463L16.5775 18.2261C16.6076 14.1589 16.6174 13.9811 16.8383 13.5047C17.5706 11.925 19.5151 11.2718 21.033 12.0956C21.7102 12.4632 22.1422 12.9656 22.4222 13.7114C22.6192 14.2359 22.6333 14.5477 22.6333 18.3632V22.4527H24.3394H26.0455L26.0439 18.1199C26.0421 13.3397 26.0083 13.0135 25.38 11.7194C25.143 11.2313 24.7847 10.7664 24.1841 10.1674C23.2364 9.2225 22.4193 8.75287 21.2416 8.47599C20.3903 8.27588 18.7383 8.27832 17.8991 8.48077ZM51.903 8.67408C49.2968 9.18189 47.2574 10.9328 46.5082 13.306C46.1919 14.3079 46.1128 16.3172 46.3482 17.3722C47.1837 21.117 50.8141 23.3725 54.7862 22.6147C56.8189 22.2268 58.711 20.7898 59.6191 18.9439C60.0868 17.9936 60.3751 16.8933 60.3783 16.0465L60.38 15.5414H58.7273H57.0745L57.0732 15.8871C57.0684 17.2153 56.1767 18.634 54.942 19.2783C54.5227 19.497 54.314 19.5287 53.2892 19.5287C52.2587 19.5287 52.058 19.498 51.6364 19.2753C50.7982 18.8327 50.3787 18.4294 50.0408 17.7418C48.9632 15.5486 49.6639 13.0175 51.6116 12.0673C52.0614 11.8479 52.4031 11.7701 53.0643 11.7367C54.1 11.6845 54.8656 11.9246 55.564 12.5207C55.8088 12.7297 56.0566 12.8848 56.1147 12.8654C56.282 12.8095 58.4607 10.8409 58.4607 10.7457C58.4607 10.5803 57.1208 9.5754 56.4881 9.2663C55.1899 8.63229 53.3425 8.3937 51.903 8.67408ZM68.164 8.60049C66.4335 8.79742 65.1188 9.41719 63.953 10.5855C62.5099 12.0314 61.9374 13.481 61.9327 15.7009C61.9282 17.8354 62.4979 19.2471 63.9549 20.7101C65.3904 22.1518 66.8405 22.7121 69.1236 22.7072C70.2765 22.7046 70.5716 22.6661 71.3095 22.4218C72.5135 22.0229 73.3968 21.463 74.2793 20.5397C75.5869 19.171 76.0945 17.82 76.097 15.7009C76.0987 14.2009 75.9294 13.4411 75.3151 12.1922C74.1019 9.72596 71.1778 8.25738 68.164 8.60049ZM84.2649 8.59072C83.6688 8.70522 82.9035 8.9922 82.4239 9.28109C82.1444 9.4494 81.8968 9.58721 81.8735 9.58721C81.8501 9.58721 81.7988 9.39582 81.7592 9.1619L81.687 8.7366H80.0436H78.4003V15.6478V22.5589H80.0409H81.6815L81.7459 19.5021C81.7813 17.8209 81.8477 15.6951 81.8932 14.7783C81.9748 13.1336 81.9803 13.1061 82.2998 12.7124C83.2133 11.587 84.9898 11.614 85.6268 12.763C86.0267 13.4843 86.0775 14.1223 86.0775 18.4174V22.5589H87.837H89.5963V18.0592V13.5594L89.8896 12.9821C90.1191 12.5301 90.2861 12.3529 90.6586 12.1656C91.21 11.8883 92.0775 11.8466 92.617 12.0714C93.0608 12.2563 93.5024 12.7785 93.6436 13.2853C93.7112 13.5281 93.754 15.3944 93.7543 18.1199L93.7549 22.5589H95.5143H97.2736L97.2663 18.9174C97.2624 16.9143 97.2231 14.4138 97.1792 13.3605C97.1069 11.6284 97.0732 11.3887 96.8271 10.8526C95.831 8.6829 92.6158 7.85578 90.1011 9.12213C89.7942 9.27674 89.3365 9.54435 89.084 9.71692C88.6857 9.98933 88.5997 10.012 88.4332 9.88875C88.3278 9.8106 88.0375 9.59273 87.7882 9.40453C87.1308 8.90864 86.263 8.61549 85.3311 8.57465C84.8913 8.5553 84.4115 8.56254 84.2649 8.59072ZM105.992 8.63378C105.29 8.75159 104.569 9.00539 103.916 9.36455L103.361 9.66982L103.291 9.20315L103.221 8.7366H101.527H99.8328V17.9869V27.2373L100.179 27.2364C100.627 27.2353 103.153 26.9388 103.212 26.8806C103.236 26.8563 103.257 25.7207 103.257 24.3573C103.258 22.9938 103.282 21.8406 103.311 21.7946C103.339 21.7485 103.636 21.8485 103.97 22.0166C106.405 23.2419 109.731 22.8731 111.712 21.1589C114.577 18.6799 114.687 13.0568 111.923 10.3785C110.479 8.97892 108.101 8.27949 105.992 8.63378ZM121.585 8.62538C119.655 8.88556 117.952 9.85578 116.997 11.2397C116.51 11.9451 115.97 13.0837 115.764 13.8403C115.513 14.7624 115.511 16.5209 115.76 17.4553C116.092 18.697 116.857 20.0845 117.644 20.8693C119.575 22.7954 122.976 23.3291 125.374 22.0824C126.095 21.7076 126.17 21.7284 126.17 22.3019V22.5589H127.876H129.582V15.6478V8.7366H127.876H126.17V8.99368C126.17 9.57699 126.092 9.60464 125.411 9.26184C124.32 8.71267 122.806 8.46089 121.585 8.62538ZM138.913 8.5905C137.834 8.80241 137.495 8.89417 136.784 9.16721C136.334 9.33968 135.921 9.48087 135.867 9.48087C135.812 9.48087 135.767 9.31342 135.767 9.10874V8.7366H134.114H132.461V15.6478V22.5589H134.114H135.767L135.77 22.2134C135.771 22.0233 135.817 20.0511 135.872 17.8305L135.97 13.7931L136.271 13.2054C137.116 11.5555 139.807 11.3716 140.671 12.9046C141.13 13.7188 141.201 14.4881 141.203 18.6514L141.205 22.5589H142.911H144.617V17.6792C144.617 13.0975 144.604 12.7573 144.403 12.1099C143.818 10.2221 142.59 9.07939 140.722 8.68471C140.01 8.53425 139.368 8.50087 138.913 8.5905ZM4.50643 10.9099V13.096H4.93294H5.35946V12.1062C5.35946 10.9664 5.45968 10.7488 5.99177 10.7337C6.53132 10.7184 6.63901 10.9468 6.63901 12.1062V13.096H7.07895H7.51891L7.47264 11.8998C7.43745 10.9909 7.38093 10.6347 7.23719 10.4167C6.89705 9.90033 5.9054 9.77062 5.55341 10.1962C5.43356 10.3413 5.40489 10.2499 5.35946 9.57806L5.30614 8.78975L4.90629 8.75679L4.50643 8.72373V10.9099ZM28.3119 13.3352C28.3459 17.2577 28.3774 18.0085 28.5273 18.442C29.2804 20.6214 30.9484 22.1915 33.0829 22.7305C33.9073 22.9386 35.4817 22.9605 36.2922 22.7752C38.052 22.3729 39.7402 21.078 40.4847 19.5595C41.2144 18.0712 41.2345 17.8997 41.2375 13.096L41.2401 8.78975L39.5108 8.76052L37.7816 8.73139L37.7515 13.0136C37.7216 17.2661 37.7197 17.2991 37.4721 17.7744C37.14 18.412 36.6987 18.8567 36.0903 19.1668C35.6838 19.3739 35.4269 19.4223 34.7357 19.4219C33.9915 19.4215 33.8103 19.3815 33.315 19.1084C32.7067 18.7728 32.2329 18.2542 31.9352 17.5976C31.7715 17.2365 31.7463 16.7032 31.7179 12.9631L31.6855 8.7366H29.9789H28.2723L28.3119 13.3352ZM145.18 8.8695C145.21 8.94266 146.348 11.4904 147.709 14.5314C149.069 17.5723 150.23 20.1892 150.288 20.3466C150.378 20.5954 150.235 20.9856 149.197 23.3238C148.539 24.8038 147.912 26.2191 147.804 26.4688L147.608 26.9231L149.529 26.8941L151.45 26.8652L152.834 23.7817C153.596 22.0858 154.265 20.6025 154.319 20.4857C154.375 20.3687 154.954 19.0768 155.608 17.6148C156.26 16.1529 157.413 13.5753 158.169 11.8869C158.926 10.1986 159.545 8.79911 159.545 8.77689C159.545 8.75478 158.686 8.7366 157.637 8.7366H155.729L154.047 12.6744C153.123 14.8402 152.331 16.5746 152.289 16.5287C152.246 16.4827 151.48 14.7108 150.585 12.5909L148.959 8.7366H147.043C145.553 8.7366 145.139 8.76615 145.18 8.8695ZM2.08691 9.23611C1.91428 9.26949 1.84464 9.36998 1.82034 9.62037C1.79303 9.90129 1.73717 9.96509 1.49416 9.99294C1.23771 10.0224 1.20093 10.0725 1.20093 10.3917C1.20093 10.7265 1.22748 10.7568 1.52081 10.7568H1.8407V11.5473C1.8407 11.9821 1.88665 12.4583 1.94275 12.6055C2.1319 13.1016 2.94815 13.3431 3.60018 13.096C3.8241 13.011 3.87402 12.9304 3.84703 12.6972C3.81494 12.419 3.78924 12.4065 3.31485 12.4394C2.6981 12.4821 2.58711 12.3239 2.58711 11.4018V10.7568H3.17356H3.76002V10.3846V10.0125H3.17356H2.58711V9.58721C2.58711 9.1535 2.57111 9.14234 2.08691 9.23611ZM9.19191 10.007C8.4389 10.2348 8.02518 10.8142 8.02518 11.6406C8.02518 13.1721 10.2806 13.8028 11.0436 12.4846L11.2437 12.139H10.8509C10.6195 12.139 10.3465 12.2264 10.1869 12.3517C10.0377 12.4686 9.80877 12.5643 9.67793 12.5643C9.39184 12.5643 8.87821 12.1838 8.87821 11.9718C8.87821 11.8031 8.88366 11.8024 10.1578 11.8147C11.2961 11.8258 11.3843 11.7754 11.2295 11.2022C10.9676 10.2323 10.1099 9.72926 9.19191 10.007ZM10.1844 10.8426C10.5049 11.1171 10.3953 11.1821 9.6116 11.1821H8.85219L9.01011 10.9449C9.27562 10.5463 9.78648 10.5017 10.1844 10.8426ZM70.6163 12.2573C71.7767 12.798 72.5084 13.9001 72.6114 15.2619C72.7911 17.6383 71.2551 19.3766 68.9575 19.3969C67.9878 19.4054 67.1951 19.0607 66.4639 18.312C65.7853 17.6175 65.4983 16.8731 65.4983 15.8085C65.4983 14.316 65.8898 13.362 66.7996 12.6371C67.7541 11.8764 69.4395 11.7087 70.6163 12.2573ZM108.606 12.3319C109.888 12.9616 110.436 13.9851 110.439 15.7541C110.44 16.6233 110.401 16.8457 110.163 17.349C109.829 18.0524 109.245 18.6528 108.523 19.0342C108.044 19.2874 107.876 19.3161 106.87 19.3161C105.859 19.3161 105.698 19.2881 105.204 19.0286C103.993 18.3915 103.344 17.2191 103.336 15.6559C103.331 14.6002 103.553 13.8881 104.102 13.1968C104.804 12.3132 105.737 11.9178 107.033 11.955C107.757 11.9757 107.999 12.0338 108.606 12.3319ZM124.304 12.2698C126.952 13.6414 126.874 17.8804 124.179 19.0694C122.718 19.7139 121.046 19.3881 119.998 18.2544C119.355 17.5585 119.104 16.9384 119.048 15.904C118.964 14.3594 119.527 13.1365 120.625 12.4818C121.443 11.9943 121.717 11.9295 122.811 11.9637C123.599 11.9884 123.867 12.0432 124.304 12.2698Z" fill="white"/>
</svg>
