<svg width="123" height="30" viewBox="0 0 123 30" fill="none" xmlns="http://www.w3.org/2000/svg">
<mask id="mask0_1_931" style="mask-type:luminance" maskUnits="userSpaceOnUse" x="0" y="0" width="123" height="30">
<path d="M122.87 0.272705H0.732971V29.7272H122.87V0.272705Z" fill="white"/>
</mask>
<g mask="url(#mask0_1_931)">
<path d="M16.3089 2.60275C15.8578 2.43052 15.3965 2.28612 14.9277 2.17036H14.9001L12.7282 4.43259L13.5949 5.3181L15.2419 3.58858L15.387 3.63355C17.4282 4.31873 19.1984 5.63789 20.4403 7.39947C21.6822 9.16105 22.3312 11.2733 22.2931 13.4296C22.2515 16.0957 21.1657 18.6387 19.27 20.5106C17.3742 22.3825 14.8202 23.4333 12.1584 23.4366C10.145 23.4337 8.17802 22.831 6.50757 21.7051C4.83712 20.5791 3.53876 18.9808 2.77762 17.1137C2.01649 15.2465 1.82698 13.1947 2.23322 11.2192C2.63947 9.24383 3.62309 7.43411 5.05897 6.02029C6.14952 4.94287 7.47273 4.13099 8.92637 3.64738L9.07139 3.60241L12.2067 6.97499L15.2731 9.98437C15.9269 10.6052 16.3806 11.4076 16.576 12.2886C16.7714 13.1696 16.6996 14.089 16.3697 14.9288C16.0397 15.7686 15.4669 16.4904 14.7245 17.0017C13.9821 17.513 13.1042 17.7905 12.2033 17.7984H12.1274C11.2265 17.7905 10.3485 17.513 9.60614 17.0017C8.86378 16.4904 8.29088 15.7686 7.96097 14.9288C7.63106 14.089 7.55919 13.1696 7.75459 12.2886C7.94997 11.4076 8.40373 10.6052 9.05758 9.98437L11.568 7.51806L10.6667 6.58757L8.10109 9.11268C7.07369 10.2096 6.50968 11.662 6.5271 13.1661C6.54452 14.6701 7.14205 16.1091 8.19458 17.1817C9.24712 18.2544 10.6731 18.8777 12.174 18.9211C13.6748 18.9644 15.1342 18.4246 16.2468 17.4144C16.7955 16.8719 17.2312 16.2257 17.5287 15.5131C17.826 14.8004 17.9792 14.0359 17.9792 13.2636C17.9792 12.4912 17.826 11.7266 17.5287 11.014C17.2312 10.3015 16.7955 9.65519 16.2468 9.11268L12.1274 5.06559L9.39598 2.16345H9.3649C8.89612 2.27921 8.43485 2.42361 7.98369 2.59583C6.42283 3.21729 5.01794 4.17583 3.86905 5.40319C2.72014 6.63056 1.85551 8.09657 1.33667 9.69685C0.817846 11.2971 0.65759 12.9923 0.86732 14.6617C1.07705 16.3311 1.6516 17.9336 2.55008 19.3552C3.44856 20.7768 4.64885 21.9824 6.06551 22.8864C7.48216 23.7904 9.08033 24.3702 10.7462 24.5849C12.4121 24.7996 14.1048 24.6437 15.7037 24.1283C17.3026 23.6129 18.7684 22.7509 19.9968 21.6033C21.4005 20.2783 22.4466 18.619 23.0378 16.78C23.6289 14.9409 23.746 12.9819 23.3778 11.0854C23.0097 9.18885 22.1685 7.41647 20.9326 5.9333C19.6966 4.45011 18.106 3.30436 16.3089 2.60275Z" fill="white"/>
<path d="M86.0955 11.9768L85.7191 11.5029C85.1783 10.9055 84.5192 10.4276 83.7838 10.0994C83.0483 9.77127 82.2528 9.60015 81.4477 9.59695C80.7166 9.58859 79.9918 9.73458 79.3208 10.0254C78.6496 10.3163 78.0473 10.7454 77.5527 11.285C76.507 12.3604 75.9286 13.8066 75.9436 15.3079C75.9436 16.8216 76.5439 18.2733 77.6124 19.3436C78.6809 20.414 80.13 21.0153 81.6411 21.0153C83.1522 21.0153 84.6013 20.414 85.6698 19.3436C86.7383 18.2733 87.3387 16.8216 87.3387 15.3079V2.16345H86.0645L86.0955 11.9768ZM84.7558 18.421C84.0917 19.0932 83.2277 19.5313 82.2938 19.6697L82.0796 19.6939C81.9381 19.6939 81.7896 19.7147 81.6411 19.7147C80.4754 19.7083 79.3591 19.2424 78.5338 18.4176C77.7084 17.5928 77.2407 16.4756 77.2316 15.3079C77.2637 14.1564 77.743 13.0628 78.5674 12.2598C79.3918 11.4567 80.4964 11.0074 81.6463 11.0074C82.7962 11.0074 83.9008 11.4567 84.7252 12.2598C85.5496 13.0628 86.0289 14.1564 86.061 15.3079C86.0655 15.8883 85.952 16.4635 85.7276 16.9987C85.5032 17.5339 85.1726 18.0177 84.7558 18.421Z" fill="white"/>
<path d="M121.013 11.3024C120.218 10.5063 119.206 9.96364 118.105 9.74267C117.002 9.52171 115.86 9.63232 114.82 10.0606C113.781 10.4889 112.892 11.2157 112.264 12.1495C111.636 13.0832 111.298 14.1822 111.293 15.3079V28.4523H112.566V18.5353L113.143 19.189C113.634 19.7555 114.238 20.2124 114.916 20.5303C115.594 20.8481 116.332 21.0197 117.081 21.0341C117.829 21.0484 118.572 20.9052 119.262 20.6135C119.952 20.3219 120.573 19.8885 121.085 19.3412C122.129 18.2611 122.704 16.8111 122.684 15.3079C122.692 14.5616 122.548 13.8214 122.26 13.1327C121.973 12.4441 121.549 11.8213 121.013 11.3024ZM120.208 18.3346L120.108 18.4349C119.517 19.0415 118.762 19.4612 117.936 19.6422C117.798 19.6698 117.663 19.694 117.532 19.7079C117.357 19.7283 117.18 19.7387 117.004 19.739C115.831 19.7354 114.707 19.2678 113.876 18.438C113.044 17.6082 112.574 16.4833 112.566 15.3079C112.562 14.7275 112.675 14.1523 112.9 13.6171C113.125 13.0819 113.455 12.5981 113.872 12.1948C114.278 11.782 114.761 11.4549 115.295 11.2326C115.829 11.0104 116.402 10.8977 116.979 10.9011C118.146 10.9075 119.263 11.3732 120.09 12.1978C120.915 13.0224 121.385 14.1395 121.396 15.3079C121.407 15.866 121.308 16.4207 121.104 16.9402C120.9 17.4597 120.596 17.9336 120.208 18.3346Z" fill="white"/>
<path d="M39.2257 10.5657C38.6029 10.1614 37.9067 9.88409 37.1769 9.74947C36.447 9.61483 35.6979 9.62557 34.9722 9.78103C34.2466 9.93651 33.5587 10.2337 32.9476 10.6556C32.3367 11.0775 31.8147 11.6158 31.4114 12.2399C30.997 12.855 30.713 13.5486 30.5771 14.2781C30.441 15.0076 30.4559 15.7571 30.6207 16.4807C30.777 17.2088 31.0768 17.8984 31.5024 18.509C31.9281 19.1196 32.4713 19.6389 33.0999 20.0365C33.9946 20.6382 35.0472 20.9608 36.1248 20.9635C36.5203 20.9618 36.9147 20.9212 37.3023 20.8425C38.6033 20.5906 39.7675 19.8709 40.5758 18.819L40.6725 18.6979L39.5985 18.0061L39.5192 18.1064C38.8962 18.8884 38.0186 19.4259 37.0399 19.6249C36.4829 19.75 35.9063 19.7594 35.3456 19.6523C34.7848 19.5452 34.2521 19.3239 33.7802 19.0023C32.8286 18.3998 32.1533 17.4449 31.9017 16.3458L31.8086 15.9376H41.7533H41.7774V15.8131C41.8721 14.8558 41.7124 13.8903 41.3147 13.0147C40.8696 12.013 40.1439 11.1623 39.2257 10.5657ZM31.8086 14.6681L31.9225 14.253C32.0431 13.7868 32.2353 13.3421 32.4922 12.9351C32.801 12.4473 33.2048 12.0268 33.6794 11.6987C34.154 11.3706 34.6898 11.1418 35.2546 11.0257C35.8168 10.8925 36.4003 10.8775 36.9686 10.9818C37.5367 11.0859 38.0772 11.3071 38.5557 11.6311C39.4946 12.2341 40.1603 13.1815 40.41 14.2703L40.5101 14.682L31.8086 14.6681Z" fill="white"/>
<path d="M64.431 10.5654C63.8086 10.1613 63.1126 9.88399 62.383 9.74941C61.6535 9.61483 60.9047 9.62559 60.1793 9.78106C59.4539 9.93655 58.7662 10.2337 58.1556 10.6556C57.5449 11.0774 57.0231 11.6156 56.6202 12.2395C56.2044 12.854 55.9194 13.5476 55.7834 14.2774C55.6473 15.007 55.6631 15.757 55.8295 16.4804C55.9858 17.2081 56.2851 17.8973 56.7102 18.5079C57.1353 19.1184 57.6776 19.638 58.3053 20.0363C59.2011 20.6384 60.2549 20.961 61.3337 20.9633C61.728 20.9615 62.1212 20.921 62.5076 20.8423C63.8097 20.5905 64.9751 19.8709 65.7846 18.8188L65.8778 18.6977L64.8039 18.0059L64.7245 18.1061C64.1031 18.8882 63.2265 19.4258 62.2487 19.6247C61.6917 19.7492 61.1152 19.7582 60.5546 19.6511C59.994 19.544 59.4612 19.3232 58.989 19.0021C58.0374 18.3996 57.3622 17.4446 57.1106 16.3455L57.0174 15.9374H66.9586H66.9828V15.8128C67.078 14.8551 66.9171 13.8892 66.5167 13.0144C66.0746 12.0119 65.3497 11.1606 64.431 10.5654ZM57.0174 14.6678L57.1313 14.2493L57.1831 14.066C57.3018 13.6664 57.4761 13.2856 57.701 12.9349C58.01 12.4472 58.4138 12.0268 58.8885 11.6987C59.363 11.3707 59.8987 11.1418 60.4635 11.0255C61.025 10.8925 61.608 10.8778 62.1757 10.982C62.7432 11.0861 63.2831 11.3071 63.7612 11.6308C64.7007 12.2338 65.3676 13.181 65.6189 14.27L65.7156 14.6816L57.0174 14.6678Z" fill="white"/>
<path d="M107.431 12.2843L106.396 13.0245H106.378L106.43 13.1317C106.746 13.8145 106.919 14.5551 106.938 15.3074C106.945 15.8876 106.833 16.4631 106.61 16.9985C106.387 17.5339 106.056 18.0178 105.64 18.4206C105.234 18.8333 104.75 19.16 104.216 19.381C103.682 19.6022 103.11 19.7132 102.532 19.7074C101.371 19.6992 100.26 19.2326 99.4399 18.4088C98.6201 17.5851 98.1579 16.4706 98.1534 15.3074C98.1437 14.7269 98.2541 14.1506 98.4776 13.6149C98.701 13.0792 99.0327 12.5955 99.4517 12.1943C100.297 11.3993 101.401 10.9373 102.559 10.8937H102.812C104.041 10.8937 104.977 11.2397 105.601 11.9315L105.705 12.0456L106.527 11.1566L106.43 11.0632C105.914 10.5703 105.303 10.1871 104.635 9.93683C103.967 9.68656 103.255 9.57434 102.542 9.60696C100.816 9.74532 99.5484 10.278 98.5504 11.2811C98.0103 11.8011 97.5829 12.427 97.2947 13.1197C97.0066 13.8124 96.864 14.5571 96.8757 15.3074C96.9122 16.7883 97.5251 18.196 98.5834 19.2304C99.6418 20.2647 101.062 20.8437 102.54 20.8437C104.019 20.8437 105.439 20.2647 106.497 19.2304C107.555 18.196 108.168 16.7883 108.205 15.3074C108.199 14.3004 107.954 13.3091 107.49 12.4158L107.431 12.2843Z" fill="white"/>
<path d="M71.5201 11.0638C71.0729 11.4861 70.7161 11.9954 70.4715 12.5603C70.2269 13.1252 70.0997 13.7341 70.0975 14.3499V20.7941H71.3716V14.3499C71.3753 13.6168 71.6113 12.9038 72.0458 12.3137C72.4803 11.7237 73.0907 11.2872 73.7888 11.0672L73.8854 11.0361V9.73206L73.7128 9.77702C72.8778 9.99594 72.1191 10.4412 71.5201 11.0638Z" fill="white"/>
<path d="M92.2795 11.0638C91.8326 11.4864 91.4764 11.9956 91.2324 12.5606C90.9884 13.1255 90.8618 13.7343 90.8603 14.3499V20.7941H92.1345V14.3499C92.1381 13.6168 92.3742 12.9038 92.8086 12.3137C93.2431 11.7237 93.8534 11.2872 94.5516 11.0672L94.6517 11.0361V9.73206L94.4791 9.77702C93.6417 9.99526 92.8807 10.4405 92.2795 11.0638Z" fill="white"/>
<path d="M48.7778 17.961L44.976 9.94979L44.938 9.87024H43.36L48.0492 19.6732L48.6225 20.8389L48.6293 20.8527L48.9022 20.8838L54.313 9.90829L54.3303 9.87024H52.7557L48.7778 17.961Z" fill="white"/>
</g>
</svg>
