<svg width="53" height="30" viewBox="0 0 53 30" fill="none" xmlns="http://www.w3.org/2000/svg">
<path fill-rule="evenodd" clip-rule="evenodd" d="M9.62499 1.12327C6.53527 1.96734 3.4461 4.46161 2.03402 7.25275C-1.26678 13.7758 2.12768 21.6293 9.16316 23.7459C14.193 25.2593 19.8248 23.2704 22.5621 19.014C22.9976 18.337 23.3538 17.6829 23.3538 17.5602C23.3538 17.4378 19.5034 17.504 19.5034 17.504C14.4078 22.6272 7.79246 20.9987 5.25598 16.1254C4.1752 14.0493 4.17827 11.1682 5.26325 8.97938C7.69433 4.07558 13.9946 2.84686 18.0751 6.48095C19.4324 7.68973 20.6124 9.8318 20.6124 10.6913C20.6124 10.6913 19.7592 10.6913 14.4078 10.6913H8.25737V12.4914V14.2914H16.3988H24.5405C24.5405 9.47321 23.3286 6.65902 21.4673 4.59897C18.625 1.45309 13.7044 0.00920087 9.62499 1.12327ZM27.8268 12.4914V14.2914H39.7083H51.5896V12.4914V10.6913H39.7083H27.8268V12.4914ZM39.848 22.8761V28.4146H41.6652H43.4823V22.8761V17.3375H41.6652H39.848V22.8761ZM47.9553 22.8761V28.4146H49.7725H51.5896V22.8761V17.3375H49.7725H47.9553V22.8761Z" fill="white"/>
</svg>
