<svg width="96" height="30" viewBox="0 0 96 30" fill="none" xmlns="http://www.w3.org/2000/svg">
<g clip-path="url(#clip0_1_913)">
<path d="M94.1983 4.2085H90.6149C89.8323 4.2085 89.2144 4.82508 89.2144 5.60609V9.14116C89.2144 9.92219 89.8323 10.5387 90.6149 10.5387H90.6561C91.3975 10.5387 92.0153 9.92219 92.0153 9.18227V7.00368H94.1571C94.9397 7.00368 95.5575 6.3871 95.5575 5.60609V5.56498C95.5575 4.82508 94.9397 4.2085 94.1983 4.2085Z" fill="white"/>
<path opacity="0.7" d="M90.6148 0.673218H90.5736C89.8321 0.673218 89.2143 1.2898 89.2143 2.0297V4.20829H87.0725C86.2899 4.20829 85.6721 4.82488 85.6721 5.60589V5.64699C85.6721 6.38689 86.2899 7.00347 87.0314 7.00347H90.6148C91.3973 7.00347 92.0151 6.38689 92.0151 5.60589V2.0708C92.0151 1.2898 91.3973 0.673218 90.6148 0.673218Z" fill="white"/>
<path d="M90.6149 4.2085C89.8323 4.2085 89.2144 4.82508 89.2144 5.60609V7.00368H90.6149C91.3975 7.00368 92.0153 6.3871 92.0153 5.60609V4.2085H90.6149Z" fill="white"/>
<path d="M44.5245 19.2938C44.5245 14.7722 40.9411 11.0728 36.5339 11.0728C32.0443 11.0728 28.5433 14.69 28.5433 19.2938C28.5433 22.7878 30.438 25.6241 33.6095 26.8573C37.0694 28.2138 40.9823 27.3094 43.4948 24.6376L42.5063 23.7332C40.4056 25.8707 37.2754 26.6929 34.4333 25.7885C31.962 25.0075 30.1909 22.8289 29.985 20.2393L29.9438 19.9926H44.5657L44.5245 19.2938ZM29.9026 18.595L29.9438 18.3484C30.3145 14.7311 33.5683 12.1004 37.2341 12.4703C40.3233 12.7992 42.7946 15.2244 43.1241 18.3484L43.1653 18.595H29.9026Z" fill="white"/>
<path d="M29.4081 10.7032H21.8706V7.74358C21.8706 5.6472 23.6005 5.52388 23.93 5.52388H27.2662V4.2085H23.93C23.8888 4.2085 20.5525 4.24961 20.5525 7.74358V10.7032H18.0812V12.0185H20.5525V27.2276H21.8706V12.0185H29.4081V10.7032Z" fill="white"/>
<path d="M11.5327 12.0182H14.457V27.2273H15.7751V10.7029H11.5327V12.0182Z" fill="white"/>
<path d="M1.31733 22.0483V4.2085H-0.000701904V22.0483C-0.000701904 27.0632 4.24172 27.1043 4.28292 27.1043H11.2026V25.7889H4.28292C3.99459 25.7889 1.31733 25.6656 1.31733 22.0483Z" fill="white"/>
<path d="M15.1154 4.00293C14.5388 4.00293 14.0857 4.4551 14.0857 5.03057C14.0857 5.60605 14.5388 6.05821 15.1154 6.05821C15.692 6.05821 16.1452 5.60605 16.1452 5.03057C16.1452 4.4962 15.692 4.00293 15.1154 4.00293Z" fill="white"/>
<path d="M44.5245 19.2938C44.5245 14.7722 40.9411 11.0728 36.5339 11.0728C32.0443 11.0728 28.5433 14.69 28.5433 19.2938C28.5433 22.7878 30.438 25.6241 33.6095 26.8573C37.0694 28.2138 40.9823 27.3094 43.4948 24.6376L42.5063 23.7332C40.4056 25.8707 37.2754 26.6929 34.4333 25.7885C31.962 25.0075 30.1909 22.8289 29.985 20.2393L29.9438 19.9926H44.5657L44.5245 19.2938ZM29.9026 18.595L29.9438 18.3484C30.3145 14.7311 33.5683 12.1004 37.2341 12.4703C40.3233 12.7992 42.7946 15.2244 43.1241 18.3484L43.1653 18.595H29.9026Z" fill="white"/>
<path d="M29.4081 10.7032H21.8706V7.74358C21.8706 5.6472 23.6005 5.52388 23.93 5.52388H27.2662V4.2085H23.93C23.8888 4.2085 20.5525 4.24961 20.5525 7.74358V10.7032H18.0812V12.0185H20.5525V27.2276H21.8706V12.0185H29.4081V10.7032Z" fill="white"/>
<path d="M11.5327 12.0182H14.457V27.2273H15.7751V10.7029H11.5327V12.0182Z" fill="white"/>
<path d="M1.31733 22.0483V4.86619C1.31733 4.49623 1.02901 4.2085 0.658316 4.2085C0.287618 4.2085 -0.000701904 4.49623 -0.000701904 4.86619V22.0483C-0.000701904 27.0632 4.24172 27.1043 4.28292 27.1043H10.5436C10.9142 27.1043 11.2026 26.8165 11.2026 26.4466C11.2026 26.0766 10.9142 25.7889 10.5436 25.7889H4.28292C3.99459 25.7889 1.31733 25.6656 1.31733 22.0483Z" fill="white"/>
<path d="M15.1154 4.00293C14.5388 4.00293 14.0857 4.4551 14.0857 5.03057C14.0857 5.60605 14.5388 6.05821 15.1154 6.05821C15.692 6.05821 16.1452 5.60605 16.1452 5.03057C16.1452 4.4962 15.692 4.00293 15.1154 4.00293Z" fill="white"/>
<path d="M88.6374 13.2106C88.1019 12.0185 87.3606 10.9087 86.4544 10.0044C85.5071 9.05894 84.4362 8.31904 83.2005 7.82578C81.9649 7.2914 80.6468 7.00366 79.2876 7.00366H73.1917C72.8209 7.00366 72.5327 7.2914 72.5327 7.62025V26.5699C72.5327 26.9399 72.8209 27.1865 73.1505 27.2276H79.2464C80.6057 27.2276 81.9237 26.9399 83.1594 26.4055C84.3538 25.9122 85.4659 25.1313 86.3721 24.2269C87.2782 23.2815 88.0196 22.2127 88.5551 21.0207C89.7083 18.4721 89.7083 15.6769 88.6374 13.2106ZM85.5071 19.6642C85.1776 20.4863 84.6833 21.1851 84.0654 21.8016C83.4477 22.4183 82.7062 22.9115 81.9237 23.2404C81.0999 23.6103 80.1937 23.7748 79.2876 23.7748H76.528C76.1573 23.7748 75.8689 23.487 75.8689 23.1581V10.9909C75.8689 10.6209 76.1573 10.3743 76.4868 10.3743H79.2464C80.1525 10.3743 81.0175 10.5388 81.8413 10.9087C82.665 11.2376 83.3652 11.7308 83.9831 12.3474C84.6009 12.9639 85.0952 13.7039 85.4659 14.4848C86.2073 16.1702 86.2073 18.02 85.5071 19.6642Z" fill="white"/>
<path d="M68.3314 7.16757L59.7231 15.7586C59.5994 15.8819 59.4347 15.923 59.2699 15.9642C59.1052 15.9642 58.9404 15.8819 58.8169 15.7586L50.2085 7.16757C49.9613 6.92094 49.5494 6.92094 49.3023 7.16757C49.1788 7.29088 49.0963 7.4553 49.0963 7.61972V26.5694C49.0963 26.9393 49.3846 27.186 49.7142 27.227H51.856C52.2267 27.227 52.515 26.9805 52.515 26.6105C52.515 26.6105 52.515 26.6105 52.515 26.5694V15.7586C52.515 15.3887 52.8033 15.1421 53.174 15.1421C53.2564 15.1421 53.38 15.1831 53.4623 15.2242L58.8169 20.568C59.064 20.8146 59.4759 20.8146 59.7642 20.568L65.1187 15.2242C65.4482 15.0598 65.819 15.1831 65.9837 15.5119C66.0248 15.5942 66.066 15.6764 66.066 15.7998V26.5694C66.066 26.9393 66.3544 27.186 66.6839 27.227H68.7845C69.1552 27.227 69.4024 26.9393 69.4024 26.5694V7.61972C69.4024 7.24978 69.114 6.96204 68.7845 6.96204C68.6197 7.00315 68.455 7.04425 68.3314 7.16757Z" fill="white"/>
<path d="M91.4384 27.8853C90.9442 28.3786 90.1204 28.3786 89.6262 27.8853C89.379 27.6388 89.2555 27.3099 89.2555 26.981C89.2555 26.6522 89.379 26.3233 89.6262 26.0767C90.1204 25.5835 90.9442 25.5835 91.4384 26.0767C91.9327 26.57 91.9327 27.3921 91.4384 27.8853ZM89.7497 26.2C89.5438 26.4056 89.4202 26.6933 89.4202 26.981C89.4202 27.2688 89.5438 27.5565 89.7497 27.7621C90.1615 28.2142 90.8618 28.2142 91.3149 27.7621C91.7679 27.3099 91.7679 26.6111 91.3149 26.2C90.8618 25.7479 90.1615 25.7479 89.7497 26.2ZM90.4911 26.2823C90.6147 26.2823 90.7382 26.2823 90.8618 26.3233C91.0265 26.3644 91.1089 26.5289 91.0677 26.6933C91.0677 26.8166 91.0265 26.8988 90.9442 26.981C90.8618 27.0221 90.8206 27.0221 90.7382 27.0632C90.8206 27.0632 90.903 27.1455 90.9854 27.1865C91.0265 27.2688 91.0677 27.3099 91.0677 27.3921V27.4743C91.0677 27.5154 91.0677 27.5565 91.0677 27.5976C91.0677 27.6388 91.0677 27.6388 91.0677 27.6798H90.8206V27.4743C90.8206 27.351 90.7794 27.2277 90.697 27.1455C90.6147 27.1044 90.5323 27.1044 90.4087 27.1044H90.2028V27.6798H89.9557V26.2823H90.4911ZM90.7794 26.4877C90.697 26.4467 90.5735 26.4467 90.4911 26.4467H90.2852V26.94H90.5323C90.6147 26.94 90.697 26.94 90.7794 26.8988C90.8618 26.8577 90.9442 26.7755 90.9442 26.6933C90.8618 26.6111 90.8207 26.5289 90.7794 26.4877Z" fill="white"/>
</g>
<defs>
<clipPath id="clip0_1_913">
<rect width="96" height="30" fill="white"/>
</clipPath>
</defs>
</svg>
