<svg width="172" height="38" viewBox="0 0 172 38" fill="none" xmlns="http://www.w3.org/2000/svg">
<g clip-path="url(#clip0_1_949)" filter="url(#filter0_d_1_949)">
<path d="M8.99704 16.1418C12.0444 17.8407 14.7178 16.5776 14.7178 9.43186C14.7178 2.21015 11.3253 0.276767 7.55872 1.85352C7.20512 10.938 7.19589 20.0415 7.53106 29.1272H4.65686C4.88535 22.8928 4.88535 7.66359 4.65686 1.18485C10.6698 -0.235059 17.3912 0.0786416 17.3912 9.63164C17.3912 15.7092 12.9079 18.511 8.85272 17.4461L8.99704 16.1418Z" fill="white"/>
<path d="M40.303 14.8405C38.089 14.6754 35.7331 14.5235 33.4614 14.6424C33.4614 20.8387 33.489 25.5394 33.6033 28.4171C36.724 28.6209 39.8513 28.3166 42.9198 27.5107L42.5747 29.2097C39.4419 29.1667 35.8185 29.1204 30.6161 29.1204C30.9616 19.7458 30.9616 10.353 30.6161 0.978233H34.2057C35.299 0.978233 38.0277 0.940259 42.3715 0.900635L42.4581 2.67717C39.545 1.86656 36.5722 1.53402 33.6021 1.68654C33.5155 5.00185 33.4602 9.34247 33.4602 13.7624C35.8214 13.8364 38.1836 13.7046 40.5327 13.3677L40.303 14.8405Z" fill="white"/>
<path d="M55.3955 0.790771C59.569 1.13391 63.7533 1.15982 67.9289 0.86837L68.0155 2.51942C66.3022 1.95377 64.5451 1.67657 62.783 1.6939C62.6387 12.193 62.5233 18.7822 62.8407 29.1245H60.0231C60.2516 18.822 60.195 12.0361 60.0519 1.6939C58.3954 1.65943 56.7429 1.92478 55.137 2.4831L55.3955 0.790771Z" fill="white"/>
<path d="M84.6015 0.986155C84.3707 7.77529 84.343 21.588 84.5715 28.3772C87.4498 28.6318 90.3394 28.2725 93.1376 27.3122L92.7948 29.2027C89.6609 29.0839 86.7819 29.1234 81.583 29.1234C81.9285 19.7486 81.9285 10.3559 81.583 0.981201L84.6015 0.986155Z" fill="white"/>
<path d="M114.123 0.585693C115.732 7.53167 120.102 22.4919 122.402 29.0829L119.01 29.4362C118.409 26.9102 117.086 21.5441 115.704 16.2162C113.432 16.0973 111.046 16.1783 108.832 16.2162C107.31 21.5441 105.986 26.5567 105.526 29.0417L104.004 29.4362C105.298 26.3587 109.752 10.7694 112.17 1.49377L114.123 0.585693ZM112.255 4.25599C110.184 11.5206 109.638 13.4524 109.091 15.3478C111.135 15.4667 113.431 15.5426 115.502 15.4287C114.323 10.8899 113.087 6.62526 112.255 4.25599Z" fill="white"/>
<path d="M139.679 13.3013C140.175 13.3829 140.675 13.4089 141.175 13.3789C144.394 13.3789 144.824 10.2633 144.824 7.53909C144.824 2.13187 141.951 0.355339 138.385 1.73727C138.042 8.17638 138.156 23.1283 138.385 29.1283H135.538C135.883 22.6148 135.711 7.61832 135.482 0.986042C136.988 0.718056 138.504 0.573608 140.023 0.553467C145.629 0.553467 147.642 3.31734 147.642 7.45818C147.642 11.6832 144.737 13.3789 143.27 13.6959C144.966 13.8907 149.192 15.8274 149.192 22.0618C149.192 26.6385 146.546 29.7193 142.668 29.7193C141.593 29.715 140.525 29.4748 139.506 29.0078L139.907 27.8239C140.674 28.6618 141.628 29.1083 142.608 29.0869C144.679 29.0869 146.318 26.7177 146.318 22.0602C146.318 18.0332 145.686 14.1268 140.972 14.1268C140.49 14.1016 140.007 14.1281 139.528 14.206L139.679 13.3013Z" fill="white"/>
</g>
<defs>
<filter id="filter0_d_1_949" x="0" y="0" width="247" height="38" filterUnits="userSpaceOnUse" color-interpolation-filters="sRGB">
<feFlood flood-opacity="0" result="BackgroundImageFix"/>
<feColorMatrix in="SourceAlpha" type="matrix" values="0 0 0 0 0 0 0 0 0 0 0 0 0 0 0 0 0 0 127 0" result="hardAlpha"/>
<feOffset dy="4"/>
<feGaussianBlur stdDeviation="2"/>
<feComposite in2="hardAlpha" operator="out"/>
<feColorMatrix type="matrix" values="0 0 0 0 0 0 0 0 0 0 0 0 0 0 0 0 0 0 0.25 0"/>
<feBlend mode="normal" in2="BackgroundImageFix" result="effect1_dropShadow_1_949"/>
<feBlend mode="normal" in="SourceGraphic" in2="effect1_dropShadow_1_949" result="shape"/>
</filter>
<clipPath id="clip0_1_949">
<rect width="239" height="30" fill="white" transform="translate(4)"/>
</clipPath>
</defs>
</svg>
